<mxfile host="app.diagrams.net" modified="2024-02-05T10:20:35.540Z" agent="Mozilla/5.0 (Macintosh; Intel Mac OS X 10_15_7) AppleWebKit/537.36 (KHTML, like Gecko) Chrome/121.0.0.0 Safari/537.36" version="23.1.1" etag="hetZr9_YR3YH1xXQ21Zp" type="github">
  <diagram name="第 1 页" id="cFbwD5n6HeEnCqJm91HK">
    <mxGraphModel>
      <root>
        <mxCell id="0" />
        <mxCell id="1" parent="0" />
      </root>
    </mxGraphModel>
  </diagram>
</mxfile>
